<svg xmlns="http://www.w3.org/2000/svg" viewBox="0 0 725.76 616.32"><defs><style>.cls-1{fill:#00599d;}.cls-2{fill:none;}</style></defs><g id="Layer_2" data-name="Layer 2"><g id="Layer_1-2" data-name="Layer 1"><path class="cls-1" d="M465.7,170.65c1.09.29,2.18.64,3.29.87,18.44,3.83,31.17,18.95,31.36,37.79.2,19.61,0,39.23,0,58.84q0,69,0,138A38,38,0,0,1,492,430.91c-7.94,9.81-18.32,14.73-30.93,14.74q-85.62,0-171.24,0c-8.31,0-16.62,0-24.92,0-22.41-.05-39.55-17.21-39.55-39.65q0-97.38,0-194.75c0-20.22,12.4-35.79,31.61-39.82,1.12-.23,2.22-.52,3.33-.79ZM362.32,398.86c19-.11,34.24-15.26,34.16-33.87a34.2,34.2,0,0,0-34.41-34.18c-18.5.14-33.92,15.59-33.8,33.85C328.4,383.8,343.51,399,362.32,398.86Zm-1.88-181.41c-3.6.25-9.68.44-15.7,1.14-24.25,2.81-46.61,10.72-66.54,25a105.36,105.36,0,0,0-22.64,21.88,7,7,0,0,0,1.51,10.33,7.22,7.22,0,0,0,10-1.71c12.14-16.64,28.6-27.18,47.83-33.7,18.88-6.41,38.35-8.28,58.19-7a140,140,0,0,1,46.46,10.68c15.61,6.7,29.05,16.22,39.15,30.12a7,7,0,0,0,10.19,1.24c3.44-2.63,3.92-6.57,1.18-10.13A108.16,108.16,0,0,0,444,241.13C419.44,224.82,392.16,217.76,360.44,217.45ZM284.86,327.71a21.45,21.45,0,1,0,.15-42.89c-11.57-.09-21.42,9.69-21.55,21.39A21.66,21.66,0,0,0,284.86,327.71Zm155.55,0a21.45,21.45,0,1,0,.11-42.89c-11.65-.14-21.5,9.79-21.49,21.66A21.5,21.5,0,0,0,440.41,327.7Z"/><rect class="cls-2" width="725.76" height="616.32"/></g></g></svg>